# xmcd
#
# Track frame offsets:
#  150
#  16693
#  34366
#  38317
#  60421
#  73162
#  88093
#  101580
#  123411
#  142945
#  156654
#  171516
#  185834
#
# Disc length: 2730 seconds
#
# Revision: 0
# Processed by: cddbd v1.5.1PL0 Copyright (c) Steve Scherf et al.
# Submitted via: Collectorz.com Music Collector 6.9
#
DISCID=b20aa80d
DTITLE=guthrie kennard - Ranch Road 12
DYEAR=2005
DGENRE=General Rock
TTITLE0=My Third Dream
TTITLE1=Country Town
TTITLE2=Juan's Lament
TTITLE3=Johnny Dallas
TTITLE4=Preacher
TTITLE5=Hummingbird
TTITLE6=Somewhere In France
TTITLE7=The Unforgiven
TTITLE8=Pourin' Rain
TTITLE9=Ain't Enough
TTITLE10=Totterdown
TTITLE11=River On The Rise
TTITLE12=Mother
EXTD=
EXTT0=
EXTT1=
EXTT2=
EXTT3=
EXTT4=
EXTT5=
EXTT6=
EXTT7=
EXTT8=
EXTT9=
EXTT10=
EXTT11=
EXTT12=
PLAYORDER=
